PathFileType	4	(X/Y/Z)	Kaydara	
DataRate	CameraRate	NumFrames	NumMarkers	Units	OrigDataRate	OrigDataStartFrame	OrigNumFrames	
120.00	120.00	4	72	mm	120.00	235	268	
Frame#	Time	Hips			RightUpLeg			RightLeg			RightFoot			RightFoot_End			LeftUpLeg			LeftLeg			LeftFoot			LeftFoot_End			Spine			Spine1			Spine2			Spine3			Neck			Head			Head_End			RightShoulder			RightArm			RightForeArm			RightHand			RightHandThumb1			RightHandThumb2			RightHandThumb3			RightHandThumb3_End			RightInHandIndex			RightHandIndex1			RightHandIndex2			RightHandIndex3			RightHandIndex3_End			RightInHandMiddle			RightHandMiddle1			RightHandMiddle2			RightHandMiddle3			RightHandMiddle3_End			RightInHandRing			RightHandRing1			RightHandRing2			RightHandRing3			RightHandRing3_End			RightInHandPinky			RightHandPinky1			RightHandPinky2			RightHandPinky3			RightHandPinky3_End			LeftShoulder			LeftArm			LeftForeArm			LeftHand			LeftHandThumb1			LeftHandThumb2			LeftHandThumb3			LeftHandThumb3_End			LeftInHandIndex			LeftHandIndex1			LeftHandIndex2			LeftHandIndex3			LeftHandIndex3_End			LeftInHandMiddle			LeftHandMiddle1			LeftHandMiddle2			LeftHandMiddle3			LeftHandMiddle3_End			LeftInHandRing			LeftHandRing1			LeftHandRing2			LeftHandRing3			LeftHandRing3_End			LeftInHandPinky			LeftHandPinky1			LeftHandPinky2			LeftHandPinky3			LeftHandPinky3_End			
		X1	Y1	Z1	X2	Y2	Z2	X3	Y3	Z3	X4	Y4	Z4	X5	Y5	Z5	X6	Y6	Z6	X7	Y7	Z7	X8	Y8	Z8	X9	Y9	Z9	X10	Y10	Z10	X11	Y11	Z11	X12	Y12	Z12	X13	Y13	Z13	X14	Y14	Z14	X15	Y15	Z15	X16	Y16	Z16	X17	Y17	Z17	X18	Y18	Z18	X19	Y19	Z19	X20	Y20	Z20	X21	Y21	Z21	X22	Y22	Z22	X23	Y23	Z23	X24	Y24	Z24	X25	Y25	Z25	X26	Y26	Z26	X27	Y27	Z27	X28	Y28	Z28	X29	Y29	Z29	X30	Y30	Z30	X31	Y31	Z31	X32	Y32	Z32	X33	Y33	Z33	X34	Y34	Z34	X35	Y35	Z35	X36	Y36	Z36	X37	Y37	Z37	X38	Y38	Z38	X39	Y39	Z39	X40	Y40	Z40	X41	Y41	Z41	X42	Y42	Z42	X43	Y43	Z43	X44	Y44	Z44	X45	Y45	Z45	X46	Y46	Z46	X47	Y47	Z47	X48	Y48	Z48	X49	Y49	Z49	X50	Y50	Z50	X51	Y51	Z51	X52	Y52	Z52	X53	Y53	Z53	X54	Y54	Z54	X55	Y55	Z55	X56	Y56	Z56	X57	Y57	Z57	X58	Y58	Z58	X59	Y59	Z59	X60	Y60	Z60	X61	Y61	Z61	X62	Y62	Z62	X63	Y63	Z63	X64	Y64	Z64	X65	Y65	Z65	X66	Y66	Z66	X67	Y67	Z67	X68	Y68	Z68	X69	Y69	Z69	X70	Y70	Z70	X71	Y71	Z71	X72	Y72	Z72	

235	1.95	8446.805	859.65103	-201.189	8468.69932011579	835.5567229922145	-241.98424431493964	8406.778887745793	429.65709332388815	-269.00795630720404	8504.992991995252	83.02327140545144	-433.35167161304605	8511.158043531696	-24.909865153439746	-306.4043443986021	8431.17912123261	854.8562938737057	-146.9458267380836	8305.762717362799	467.10585271318206	-53.492602689925434	8227.049606808427	84.1620123882697	89.50837628191003	8293.578909340042	23.177057920274823	255.08080315706414	8418.019884441437	987.3305521005861	-257.4820455843856	8374.231690651994	1064.3832855821586	-296.5627975319573	8323.621961578889	1141.8262745306515	-336.5234693915493	8267.47697638451	1210.4736577298156	-374.0458973186091	8206.430041945408	1283.434651353472	-409.81647823162996	8161.135012832557	1357.3437804993641	-375.58338605416446	8141.979112281434	1453.692688952018	-253.91347078363665	8228.47760445773	1258.0630370231784	-408.3502191071578	8242.232193223985	1244.3016784572837	-435.8395759392997	8320.406406251766	1112.929470430239	-362.5465508000989	8343.870328373336	1117.1036455331264	-396.3601392159054	8351.285191861523	1143.2406408352415	-395.30152514835754	8356.241921058967	1159.6393199982506	-402.4265250704326	8359.776141456874	1167.847653896992	-407.53971312599634	8362.792918240244	1171.943056578169	-411.93182477305095	8352.67775926312	1134.447810175143	-394.942996453574	8364.637241263057	1147.6466195542969	-396.8205285754308	8370.732163912742	1155.110408720641	-402.4212424246872	8372.30348849745	1160.3978690374422	-407.99129373565484	8372.108040671215	1165.210869672359	-414.0101072667975	8352.379602343648	1125.1712739980867	-395.4933702666435	8363.883883446597	1133.0278051547718	-397.621132183765	8370.453739644576	1139.9033016089697	-403.80451888750713	8372.310649494906	1145.673483798163	-410.55908691205354	8372.07791197561	1150.6437460301793	-417.1615353401968	8351.889304975664	1118.2796985885266	-395.7920578527435	8361.848542125512	1119.3357248189934	-397.8346570193348	8367.473737075285	1124.0190331386277	-403.2947178054915	8369.211169522361	1128.8894666585898	-409.84753226345094	8368.966885490037	1133.233249995879	-416.0732661665048	8350.776553039013	1109.961415517541	-396.41466665498376	8359.314652099803	1105.8030788942522	-398.53083342577895	8363.617724745942	1107.5058898184684	-403.00459114942976	8364.787602773225	1110.0680026260843	-407.83336177608703	8364.5151461371	1113.3459021368333	-413.37662088386094	8224.97074248469	1262.2930193688248	-387.60692725440606	8223.906907369044	1246.2057128574972	-351.84054069569083	8269.901573411513	1139.457859727424	-383.4037028030822	8314.291548371473	1116.0896729027756	-353.2438184512282	8318.407880305544	1140.4364654660133	-353.72593623595304	8328.99429901224	1143.7803427936951	-360.2249140451828	8336.449550370837	1143.2953563680678	-365.9398535241752	8342.735565899378	1140.4840323843894	-371.72135197579917	8318.524323492838	1134.1713101033397	-357.8516919034336	8327.718820510432	1144.4942760098852	-370.0877822607504	8337.099434539705	1143.199500676075	-379.56919529104164	8343.787300340882	1139.2316050737077	-384.0761253702228	8349.900203762805	1133.813881996991	-386.8704887937879	8318.57143997294	1125.7563087371254	-360.7057589296434	8327.564110166924	1131.275760331464	-374.1839654580858	8337.780344353963	1128.70849016592	-384.8681780879394	8345.839469634626	1123.367392309706	-390.467865046818	8352.523457678659	1117.1701055387114	-393.6042749860583	8318.342189012446	1119.6174368603506	-362.4103069992983	8326.12075630529	1119.4390595323014	-375.9703009249945	8334.991078841118	1116.012017466324	-385.607034292456	8342.74659285211	1110.2284575709166	-391.1806119078107	8349.022624034353	1104.1021211921334	-394.211244018241	8318.03145136804	1111.693506986692	-364.01728082859336	8324.88365700324	1106.882210673423	-377.450400306124	8331.899635187267	1102.2826256457788	-385.61399578906855	8337.514431655361	1097.1665853953523	-389.89554706453276	8343.049740614277	1091.2231330800598	-392.70459748993267
236	1.958	8446.805	859.65103	-201.189	8468.420690869414	835.4432317674571	-242.07383765048198	8406.79042950907	429.5103184468885	-269.12884811751087	8505.159624695205	83.15931916268148	-433.9843769821214	8511.628278818616	-24.89695174598918	-307.17893173794016	8431.450122899148	854.9695512177731	-146.85294137016376	8306.028864686808	467.24272255530525	-53.30452394654708	8227.230178250955	84.20273442473777	89.42701056586722	8293.822940333557	23.087488169523738	254.93333771307954	8418.070037312671	987.3386277714168	-257.4906252909964	8374.300622479099	1064.4145839287903	-296.54672767518514	8323.71121552616	1141.8881442188738	-336.4737202090464	8267.584716484693	1210.5747585661468	-373.949938404675	8206.556942524843	1283.5755281914578	-409.66619519847956	8161.219293384511	1357.4836726847755	-375.4893611820737	8142.1100512472	1453.898877211437	-253.87487515269575	8228.512055658852	1258.1215871050822	-408.20775789829986	8241.919466145719	1244.1024332032136	-435.57356020497394	8319.744679668775	1112.9678857774707	-361.719458089475	8342.59333744168	1116.9731063881247	-394.9312500082239	8349.982514016503	1143.0709417566475	-393.86043334111923	8354.93180478203	1159.4348535972235	-400.9032069906467	8358.454155361089	1167.6199733881015	-405.95066370321825	8361.455313925546	1171.6968771280535	-410.2807330145014	8351.344000965046	1134.2772879343195	-393.47433957849273	8363.21245575044	1147.4221892609908	-395.24273200285916	8369.269367030338	1154.8527763812745	-400.74659163728427	8370.843478935456	1160.1253324492047	-406.2603221821745	8370.668158579867	1164.92986692703	-412.2351453051305	8351.032021605139	1125.0055470855932	-394.0044843208092	8362.440033703366	1132.8120905170026	-396.0148587056853	8368.966915004956	1139.6521699183977	-402.09021691958066	8370.82646938947	1145.404760821454	-408.7757125216493	8370.615405819246	1150.3659492092952	-415.32948129951944	8350.533962458796	1118.1186872318117	-394.29180031580097	8360.39925199913	1119.1338675018808	-396.2197209483221	8365.985615093543	1123.7872164430173	-401.5834141720833	8367.724868379548	1128.6411651857316	-408.06842942891814	8367.500617411151	1132.976645913611	-414.2478361644145	8349.417415488459	1109.8077789466295	-394.90339975619327	8357.865906636402	1105.61634673158	-396.9080151746466	8362.13615142373	1107.2967658848618	-401.3016573260812	8363.306519391832	1109.8476279123283	-406.07954888146935	8363.051326410523	1113.1186176996787	-411.5809489530758	8225.18258301667	1262.4884262602995	-387.4971446950865	8224.430722466122	1246.7063392507234	-351.73464082341815	8270.069635316047	1139.7178414301952	-382.5530749132265	8313.665998458731	1116.0138448075222	-352.3935662837613	8317.739595891559	1140.323472531309	-352.84508195251806	8328.27956190263	1143.6341425321111	-359.2674139917175	8335.712656124218	1143.124529869932	-364.9224957873435	8341.98891965746	1140.291392305402	-370.6485486640196	8317.89191714894	1134.0479041702715	-356.9466280640114	8327.099614263547	1144.2996238041183	-369.06697018331386	8336.471993205754	1142.9639415072638	-378.4580437394804	8343.135849800958	1138.982125789414	-382.91769745931094	8349.216139285796	1133.560646067946	-385.6789252599844	8317.965468176177	1125.6317133366579	-359.78662964894903	8326.985316772547	1131.0810276015006	-373.14433361831607	8337.195988254096	1128.469204784143	-383.7284752230464	8345.227790041225	1123.111353643787	-389.270408736338	8351.876891114523	1116.9099762685478	-392.37021410824804	8317.754802525515	1119.4937071406778	-361.484228201918	8325.57458066545	1119.2528963758712	-374.93029458087267	8334.4435082294	1115.7872206887143	-384.4784695331208	8342.174500535417	1109.9876064362693	-389.99562981177706	8348.418598224871	1103.8574738809903	-392.9915081811073	8317.463163970655	1111.5737218256183	-363.08627780294967	8324.365772680627	1106.707194732621	-376.41194456717585	8331.38584016121	1102.0772563214205	-384.50303779223225	8336.985268868235	1096.9497879727992	-388.74266988320176	8342.493739368978	1091.003135158971	-391.5204920701228
237	1.967	8446.805	859.65103	-201.189	8468.145392477965	835.3304863215849	-242.16349647020914	8406.80087021982	429.36539980485793	-269.25288726072813	8505.320595174386	83.29310853446853	-434.6154193844875	8512.087745064031	-24.884711068398513	-307.9502795708427	8431.718034839165	855.0821803941161	-146.75989740923487	8306.292303584025	467.378313408166	-53.11895589623664	8227.409401631106	84.24171540917044	89.34272539018764	8294.062962376722	22.996328869022847	254.7838170860914	8418.118934008287	987.3461413741794	-257.49961125411977	8374.36750155574	1064.4443402204747	-296.53167981305444	8323.797425444762	1141.9471228414725	-336.4256555808317	8267.688410831086	1210.6713739092313	-373.8562591073401	8206.678747172917	1283.710268681604	-409.518855571812	8161.298356339954	1357.6172676142548	-375.39791414742245	8142.23587355983	1454.0984233813042	-253.83838140144408	8228.542511451731	1258.1745928722096	-408.06877363801163	8241.605156217109	1243.896390439108	-435.3144225159042	8319.07662801251	1112.9937417978992	-360.90212012398916	8341.30957685949	1116.8182377795915	-393.51022918724397	8348.672280667217	1142.8744188232167	-392.42852885133163	8353.61267053493	1159.201606888295	-399.38904490988483	8357.12218485345	1167.362267784893	-404.37053956701806	8360.10696401991	1171.4197355375966	-408.63819549683126	8350.002875226828	1134.080076411351	-392.0143296526926	8361.779262971182	1147.1681528486797	-393.6736185063483	8367.7970456549	1154.5638203004246	-399.080181782404	8369.373072560154	1159.820706115218	-404.53722755399406	8369.217037764327	1164.616344015937	-410.4676988612089	8349.67723239495	1124.8135673449983	-392.52365367522543	8360.988047371313	1132.5675140452513	-394.41635587480175	8367.470758517067	1139.3703695663467	-400.38312436469323	8369.331916461308	1145.104477390968	-406.9990705846401	8369.141611202129	1150.0561367105813	-413.5037458914588	8349.171554446099	1117.9318028535333	-392.799182543598	8358.942200794982	1118.9041199502792	-394.61181872874965	8364.488716042366	1123.5260077510127	-399.8785751189545	8366.228799766188	1128.3626503200344	-406.2952885725323	8366.023727423988	1132.6894188038273	-412.4279588876373	8348.051374820905	1109.6288150909304	-393.39926597156375	8356.409733700282	1105.4027626076854	-395.2914733240192	8360.646380315651	1107.0597102596632	-399.6044217083984	8361.81653674602	1109.598781791807	-404.33100841055705	8361.57786256849	1112.8625331798219	-409.79015285479704	8225.388916477863	1262.678293114261	-387.389266824889	8224.947236357242	1247.2000584179516	-351.6270219497173	8270.232101001204	1139.965982025564	-381.7056075271905	8313.039583105388	1115.9180270240058	-351.5481210907058	8317.068737560498	1140.1885670486881	-351.9692442875452	8327.56111449834	1143.4652580167945	-358.31603078685214	8334.97143616987	1142.9305415922101	-363.9120300602559	8341.23758519375	1140.0752435882566	-369.5832912459502	8317.257384247432	1133.9024923291452	-356.0465479517792	8326.477122221722	1144.0806765695756	-368.0518101082831	8335.840601769012	1142.70319741393	-377.3534592579303	8342.480060943597	1138.7074231113618	-381.76659337394904	8348.52743188459	1133.2825021383655	-384.49543863440874	8317.35789552232	1125.4853880134765	-358.87250659723657	8326.404076146779	1130.8624812891715	-372.11037186588885	8336.608533334012	1128.2051794855956	-382.59544232970745	8344.612578436981	1122.8305501102097	-388.08053604988794	8351.226476344938	1116.6254376617164	-391.1445611816846	8317.166215644413	1119.348493693252	-360.5631500998585	8325.026792201577	1119.0435747566073	-373.8958662694045	8333.893833129328	1115.5385071225244	-383.35635470498494	8341.599926383702	1109.7228405065998	-388.8179791479668	8347.811812469909	1103.589258413545	-391.7798789516008	8316.894175465624	1111.4328597532308	-362.16028422131205	8323.847114639779	1106.5097917145208	-375.37901872203304	8330.870998491484	1101.8489765932584	-383.39830600549647	8336.454842625059	1096.7101221919365	-387.59666097889135	8341.936261931744	1090.7605993059694	-390.3439410866932
238	1.975	8446.805	859.65103	-201.189	8467.87346405829	835.2184998432466	-242.2532132985794	8406.810203921172	429.2223584156882	-269.3800771223456	8505.475863982387	83.42461757735401	-435.2447360713065	8512.536353648838	-24.87314724298796	-308.71830569049604	8431.982819673563	855.1941687567902	-146.66670220664284	8306.55299879938	467.51260767576133	-52.935926025957656	8227.58725517484	84.27894408211986	89.25551492484585	8294.298936395722	22.90358081416609	254.63224503977	8418.166564566733	987.3530897097121	-257.5090045172288	8374.432312741194	1064.4725448794488	-296.51765987380486	8323.880570005484	1142.0031921474372	-336.37928731809757	8267.788032033855	1210.76347500946	-373.76487791821074	8206.795422161334	1283.8388332739912	-409.3744855385705	8161.372171120569	1357.7445250824767	-375.3090645914521	8142.356544960203	1454.2912799151998	-253.80400220320195	8228.568951072195	1258.2220245813346	-407.93329420761546	8241.289283700733	1243.6835373176098	-435.0622166603206	8318.402280926983	1113.0069792797337	-360.0946524516381	8340.019128159842	1116.6389431814346	-392.09723676544064	8347.354572059317	1142.650967901765	-391.0059785573346	8352.284592726548	1158.9394701639164	-397.8842127230654	8355.780301102513	1167.0744239312403	-402.7995193220678	8358.747937695827	1171.1115161465102	-407.0043945999591	8348.654465870239	1133.856072137071	-390.5631335979766	8360.337750101955	1146.8843986749418	-392.1133647105461	8366.315285350554	1154.2434241718427	-397.42219598817564	8367.892350834638	1159.48387167295	-402.8221962768639	8367.754754203219	1164.2701814433392	-408.70795658729753	8348.315320472715	1124.5952328190838	-391.05104442185393	8359.528014531656	1132.2939666278737	-392.82579879814705	8365.965358742404	1139.0577865792989	-398.6834232851897	8367.827074439267	1144.7725171614259	-405.2293470740319	8367.656605908058	1149.7141910018497	-411.6845174922714	8347.802168026825	1117.7189447640426	-391.31436979751425	8357.477480764515	1118.6463761361986	-393.011122989955	8362.983131086476	1123.2352970406848	-398.18037917907384	8364.723050311848	1128.0538098812353	-404.52829191515207	8364.536296628125	1132.3714554315968	-410.6138187767681	8346.678519197429	1109.4244250309246	-391.9024292980688	8354.946227003922	1105.1622237645556	-393.6813778634302	8359.14850461221	1106.79461739019	-397.91305873366343	8360.3177448868	1109.3213573327412	-402.5879173553129	8360.094839860285	1112.5775408235595	-408.00441146945593	8225.589699896065	1262.8625782759707	-387.28331167048276	8225.456370825132	1247.686796030401	-351.5176856206851	8270.388930730693	1140.2022062735357	-380.8613889902437	8312.412352983043	1115.8021374693024	-350.70757860774313	8316.395352185345	1140.0316616494329	-351.0985225424499	8326.839002681461	1143.2736013264507	-357.37087530391085	8334.225935580924	1142.7133036265102	-362.9085758874287	8340.48160680527	1139.8354986755505	-368.5257070188947	8316.620770486625	1133.7349877130412	-355.15155285542284	8325.851383773856	1143.8373435043154	-367.04241640267674	8335.20529736396	1142.4171772003656	-376.25556817546146	8341.819971260764	1138.4074068673733	-380.6229469365412	8347.834120533586	1132.9793617387786	-383.3201689798259	8316.748767707439	1125.3172472307867	-357.9634924099081	8325.820427829862	1130.6200327383758	-371.08219632004113	8336.018016696768	1127.9163253756983	-381.4692087189853	8343.993872367217	1122.5248941410018	-386.8983854055895	8350.572252542604	1116.3164040579234	-389.9274614849651	8316.57647420091	1119.1817119994378	-359.64717592379634	8324.477431276971	1118.8110081798513	-372.86713175655495	8333.342091813258	1115.2657902658202	-382.2408171929719	8341.022909113606	1109.4340746661164	-387.6477961499984	8347.20230702465	1103.2973915181847	-390.57649904434504	8316.324532210807	1111.2708377116096	-361.23940379834096	8323.327724465593	1106.289917574274	-374.3517382099411	8330.355150164612	1101.5977027323343	-382.29992530628	8335.92319327318	1096.4475054904867	-386.45765174818337	8341.377350033972	1090.4954446819843	-389.1750817146859
